<mxfile host="app.diagrams.net" modified="2022-04-06T07:41:10.970Z" agent="5.0 (Windows NT 10.0; Win64; x64) AppleWebKit/537.36 (KHTML, like Gecko) Chrome/99.0.4844.82 Safari/537.36" etag="DlRbWoehHGOZ7zs90zea" version="15.7.0" type="github" pages="3">
  <diagram id="e4WmlFfX5D3VOxw2eBZq" name="Page-1">
    <mxGraphModel dx="782" dy="446" grid="1" gridSize="10" guides="1" tooltips="1" connect="1" arrows="1" fold="1" page="1" pageScale="1" pageWidth="850" pageHeight="1100" math="0" shadow="0">
      <root>
        <mxCell id="0" />
        <mxCell id="1" parent="0" />
        <mxCell id="PwNaMZ5JWyr_AnSyDkh3-11" value="" style="rounded=0;whiteSpace=wrap;html=1;" parent="1" vertex="1">
          <mxGeometry x="310" y="130" width="330" height="230" as="geometry" />
        </mxCell>
        <mxCell id="PwNaMZ5JWyr_AnSyDkh3-20" style="edgeStyle=orthogonalEdgeStyle;rounded=0;orthogonalLoop=1;jettySize=auto;html=1;exitX=0.033;exitY=0.633;exitDx=0;exitDy=0;entryX=0;entryY=0.5;entryDx=0;entryDy=0;exitPerimeter=0;" parent="1" source="PwNaMZ5JWyr_AnSyDkh3-17" target="PwNaMZ5JWyr_AnSyDkh3-16" edge="1">
          <mxGeometry relative="1" as="geometry">
            <mxPoint x="480" y="180" as="targetPoint" />
            <Array as="points">
              <mxPoint x="523" y="300" />
              <mxPoint x="480" y="300" />
              <mxPoint x="480" y="180" />
            </Array>
          </mxGeometry>
        </mxCell>
        <mxCell id="PwNaMZ5JWyr_AnSyDkh3-13" value="Kuberrnetes" style="rounded=0;whiteSpace=wrap;html=1;" parent="1" vertex="1">
          <mxGeometry x="320" y="215" width="110" height="60" as="geometry" />
        </mxCell>
        <mxCell id="PwNaMZ5JWyr_AnSyDkh3-14" value="Api server" style="rounded=0;whiteSpace=wrap;html=1;" parent="1" vertex="1">
          <mxGeometry x="325" y="220" width="100" height="20" as="geometry" />
        </mxCell>
        <mxCell id="PwNaMZ5JWyr_AnSyDkh3-16" value="Node1" style="whiteSpace=wrap;html=1;aspect=fixed;" parent="1" vertex="1">
          <mxGeometry x="520" y="140" width="80" height="80" as="geometry" />
        </mxCell>
        <mxCell id="PwNaMZ5JWyr_AnSyDkh3-17" value="Node2" style="whiteSpace=wrap;html=1;" parent="1" vertex="1">
          <mxGeometry x="520" y="230" width="80" height="100" as="geometry" />
        </mxCell>
        <mxCell id="PwNaMZ5JWyr_AnSyDkh3-25" value="" style="endArrow=classic;html=1;rounded=0;exitX=1;exitY=0.5;exitDx=0;exitDy=0;" parent="1" source="PwNaMZ5JWyr_AnSyDkh3-13" edge="1">
          <mxGeometry width="50" height="50" relative="1" as="geometry">
            <mxPoint x="440" y="244.5" as="sourcePoint" />
            <mxPoint x="480" y="244.5" as="targetPoint" />
          </mxGeometry>
        </mxCell>
        <mxCell id="PwNaMZ5JWyr_AnSyDkh3-29" value="K8S" style="rounded=0;whiteSpace=wrap;html=1;" parent="1" vertex="1">
          <mxGeometry x="530" y="230" width="70" height="40" as="geometry" />
        </mxCell>
      </root>
    </mxGraphModel>
  </diagram>
  <diagram id="4RZbECkQjc-8YPw3wJCb" name="Page-2">
    <mxGraphModel dx="782" dy="446" grid="1" gridSize="10" guides="1" tooltips="1" connect="1" arrows="1" fold="1" page="1" pageScale="1" pageWidth="850" pageHeight="1100" math="0" shadow="0">
      <root>
        <mxCell id="tBDZIp85HDmHEidn1fDF-0" />
        <mxCell id="tBDZIp85HDmHEidn1fDF-1" parent="tBDZIp85HDmHEidn1fDF-0" />
        <mxCell id="JWX8QoNGrkwyCGTMwaAK-12" value="" style="edgeStyle=orthogonalEdgeStyle;rounded=0;orthogonalLoop=1;jettySize=auto;html=1;" parent="tBDZIp85HDmHEidn1fDF-1" source="JWX8QoNGrkwyCGTMwaAK-0" edge="1">
          <mxGeometry relative="1" as="geometry">
            <mxPoint x="575" y="245" as="targetPoint" />
          </mxGeometry>
        </mxCell>
        <mxCell id="JWX8QoNGrkwyCGTMwaAK-0" value="" style="rounded=0;whiteSpace=wrap;html=1;" parent="tBDZIp85HDmHEidn1fDF-1" vertex="1">
          <mxGeometry x="310" y="140" width="150" height="210" as="geometry" />
        </mxCell>
        <mxCell id="JWX8QoNGrkwyCGTMwaAK-1" value="NodePort" style="text;html=1;strokeColor=none;fillColor=none;align=center;verticalAlign=middle;whiteSpace=wrap;rounded=0;" parent="tBDZIp85HDmHEidn1fDF-1" vertex="1">
          <mxGeometry x="340" y="140" width="80" height="30" as="geometry" />
        </mxCell>
        <mxCell id="JWX8QoNGrkwyCGTMwaAK-2" value="port" style="rounded=0;whiteSpace=wrap;html=1;" parent="tBDZIp85HDmHEidn1fDF-1" vertex="1">
          <mxGeometry x="320" y="190" width="120" height="30" as="geometry" />
        </mxCell>
        <mxCell id="JWX8QoNGrkwyCGTMwaAK-3" value="node port" style="rounded=0;whiteSpace=wrap;html=1;" parent="tBDZIp85HDmHEidn1fDF-1" vertex="1">
          <mxGeometry x="320" y="270" width="120" height="30" as="geometry" />
        </mxCell>
        <mxCell id="JWX8QoNGrkwyCGTMwaAK-6" value="browser" style="rounded=0;whiteSpace=wrap;html=1;" parent="tBDZIp85HDmHEidn1fDF-1" vertex="1">
          <mxGeometry x="90" y="190" width="150" height="150" as="geometry" />
        </mxCell>
        <mxCell id="JWX8QoNGrkwyCGTMwaAK-9" style="edgeStyle=orthogonalEdgeStyle;rounded=0;orthogonalLoop=1;jettySize=auto;html=1;exitX=0.5;exitY=1;exitDx=0;exitDy=0;" parent="tBDZIp85HDmHEidn1fDF-1" edge="1">
          <mxGeometry relative="1" as="geometry">
            <mxPoint x="105" y="315" as="sourcePoint" />
            <mxPoint x="105" y="315" as="targetPoint" />
          </mxGeometry>
        </mxCell>
        <mxCell id="JWX8QoNGrkwyCGTMwaAK-10" value="Target Port" style="rounded=0;whiteSpace=wrap;html=1;" parent="tBDZIp85HDmHEidn1fDF-1" vertex="1">
          <mxGeometry x="320" y="220" width="120" height="50" as="geometry" />
        </mxCell>
        <mxCell id="JWX8QoNGrkwyCGTMwaAK-13" value="K8s POD (application)" style="whiteSpace=wrap;html=1;aspect=fixed;" parent="tBDZIp85HDmHEidn1fDF-1" vertex="1">
          <mxGeometry x="570" y="205" width="80" height="80" as="geometry" />
        </mxCell>
        <mxCell id="JWX8QoNGrkwyCGTMwaAK-14" value="localhost:8080/greet" style="rounded=0;whiteSpace=wrap;html=1;" parent="tBDZIp85HDmHEidn1fDF-1" vertex="1">
          <mxGeometry x="90" y="285" width="150" height="50" as="geometry" />
        </mxCell>
        <mxCell id="JWX8QoNGrkwyCGTMwaAK-24" value="" style="endArrow=classic;html=1;rounded=0;exitX=1;exitY=0.5;exitDx=0;exitDy=0;entryX=0;entryY=0.692;entryDx=0;entryDy=0;entryPerimeter=0;" parent="tBDZIp85HDmHEidn1fDF-1" source="JWX8QoNGrkwyCGTMwaAK-14" target="JWX8QoNGrkwyCGTMwaAK-0" edge="1">
          <mxGeometry width="50" height="50" relative="1" as="geometry">
            <mxPoint x="380" y="250" as="sourcePoint" />
            <mxPoint x="430" y="200" as="targetPoint" />
          </mxGeometry>
        </mxCell>
        <mxCell id="6Bn-WyHa8pAeo4HxCy7q-2" style="edgeStyle=orthogonalEdgeStyle;rounded=0;orthogonalLoop=1;jettySize=auto;html=1;exitX=0.5;exitY=1;exitDx=0;exitDy=0;entryX=0.013;entryY=0.343;entryDx=0;entryDy=0;entryPerimeter=0;" parent="tBDZIp85HDmHEidn1fDF-1" source="6Bn-WyHa8pAeo4HxCy7q-0" target="JWX8QoNGrkwyCGTMwaAK-0" edge="1">
          <mxGeometry relative="1" as="geometry">
            <mxPoint x="270" y="210" as="targetPoint" />
            <Array as="points">
              <mxPoint x="270" y="212" />
            </Array>
          </mxGeometry>
        </mxCell>
        <mxCell id="6Bn-WyHa8pAeo4HxCy7q-0" value="K8S2 POD" style="rounded=0;whiteSpace=wrap;html=1;" parent="tBDZIp85HDmHEidn1fDF-1" vertex="1">
          <mxGeometry x="210" y="30" width="120" height="60" as="geometry" />
        </mxCell>
      </root>
    </mxGraphModel>
  </diagram>
  <diagram id="0JSwRrKcKj0KrBzVu1pa" name="Page-3">
    <mxGraphModel dx="782" dy="446" grid="1" gridSize="10" guides="1" tooltips="1" connect="1" arrows="1" fold="1" page="1" pageScale="1" pageWidth="850" pageHeight="1100" math="0" shadow="0">
      <root>
        <mxCell id="iTxPS9XdarxOP0ksE7Qw-0" />
        <mxCell id="iTxPS9XdarxOP0ksE7Qw-1" parent="iTxPS9XdarxOP0ksE7Qw-0" />
      </root>
    </mxGraphModel>
  </diagram>
</mxfile>
